<svg width="512" height="512" viewBox="0 0 512 512" fill="none" xmlns="http://www.w3.org/2000/svg">
<path d="M109 293.38C197.5 20.8799 284 388.88 402.5 135.88" stroke="url(#paint0_linear_2_21)" stroke-width="6" stroke-linecap="round"/>
<g filter="url(#filter0_d_2_21)">
<path d="M247.5 202.88C247.5 208.403 243.023 212.88 237.5 212.88C231.977 212.88 227.5 208.403 227.5 202.88C227.5 197.357 231.977 192.88 237.5 192.88C243.023 192.88 247.5 197.357 247.5 202.88Z" fill="#F39C12"/>
</g>
<path d="M108.227 350V315.091H112.455V332.409H112.864L128.545 315.091H134.068L119.409 330.841L134.068 350H128.955L116.818 333.773L112.455 338.682V350H108.227ZM174.929 315.091H179.156V338.205C179.156 340.591 178.594 342.722 177.469 344.597C176.355 346.46 174.781 347.932 172.747 349.011C170.713 350.08 168.327 350.614 165.588 350.614C162.849 350.614 160.463 350.08 158.429 349.011C156.395 347.932 154.815 346.46 153.69 344.597C152.577 342.722 152.02 340.591 152.02 338.205V315.091H156.247V337.864C156.247 339.568 156.622 341.085 157.372 342.415C158.122 343.733 159.19 344.773 160.577 345.534C161.974 346.284 163.645 346.659 165.588 346.659C167.531 346.659 169.202 346.284 170.599 345.534C171.997 344.773 173.065 343.733 173.804 342.415C174.554 341.085 174.929 339.568 174.929 337.864V315.091ZM200.078 350V315.091H211.873C214.601 315.091 216.839 315.557 218.589 316.489C220.339 317.409 221.635 318.676 222.476 320.29C223.317 321.903 223.737 323.739 223.737 325.795C223.737 327.852 223.317 329.676 222.476 331.267C221.635 332.858 220.345 334.108 218.606 335.017C216.868 335.915 214.646 336.364 211.942 336.364H202.396V332.545H211.805C213.669 332.545 215.169 332.273 216.305 331.727C217.453 331.182 218.282 330.409 218.794 329.409C219.317 328.398 219.578 327.193 219.578 325.795C219.578 324.398 219.317 323.176 218.794 322.131C218.271 321.085 217.436 320.278 216.288 319.71C215.14 319.131 213.623 318.841 211.737 318.841H204.305V350H200.078ZM216.51 334.318L225.101 350H220.192L211.737 334.318H216.51ZM241.352 318.841V315.091H267.534V318.841H256.556V350H252.329V318.841H241.352ZM314.539 332.545C314.539 336.227 313.875 339.409 312.545 342.091C311.215 344.773 309.392 346.841 307.073 348.295C304.755 349.75 302.107 350.477 299.13 350.477C296.153 350.477 293.505 349.75 291.187 348.295C288.869 346.841 287.045 344.773 285.715 342.091C284.386 339.409 283.721 336.227 283.721 332.545C283.721 328.864 284.386 325.682 285.715 323C287.045 320.318 288.869 318.25 291.187 316.795C293.505 315.341 296.153 314.614 299.13 314.614C302.107 314.614 304.755 315.341 307.073 316.795C309.392 318.25 311.215 320.318 312.545 323C313.875 325.682 314.539 328.864 314.539 332.545ZM310.448 332.545C310.448 329.523 309.943 326.972 308.931 324.892C307.931 322.812 306.573 321.239 304.857 320.17C303.153 319.102 301.244 318.568 299.13 318.568C297.017 318.568 295.102 319.102 293.386 320.17C291.681 321.239 290.323 322.812 289.312 324.892C288.312 326.972 287.812 329.523 287.812 332.545C287.812 335.568 288.312 338.119 289.312 340.199C290.323 342.278 291.681 343.852 293.386 344.92C295.102 345.989 297.017 346.523 299.13 346.523C301.244 346.523 303.153 345.989 304.857 344.92C306.573 343.852 307.931 342.278 308.931 340.199C309.943 338.119 310.448 335.568 310.448 332.545ZM332.968 350V346.932L351.786 318.841H332.764V315.091H356.832V318.159L338.014 346.25H357.036V350H332.968ZM378.039 350H373.607L386.425 315.091H390.789L403.607 350H399.175L388.744 320.614H388.471L378.039 350ZM379.675 336.364H397.539V340.114H379.675V336.364Z" fill="#EE5A24"/>
<defs>
<filter id="filter0_d_2_21" x="214.5" y="179.88" width="46" height="46" filterUnits="userSpaceOnUse" color-interpolation-filters="sRGB">
<feFlood flood-opacity="0" result="BackgroundImageFix"/>
<feColorMatrix in="SourceAlpha" type="matrix" values="0 0 0 0 0 0 0 0 0 0 0 0 0 0 0 0 0 0 127 0" result="hardAlpha"/>
<feOffset/>
<feGaussianBlur stdDeviation="6.5"/>
<feComposite in2="hardAlpha" operator="out"/>
<feColorMatrix type="matrix" values="0 0 0 0 0.952941 0 0 0 0 0.611765 0 0 0 0 0.0705882 0 0 0 1 0"/>
<feBlend mode="normal" in2="BackgroundImageFix" result="effect1_dropShadow_2_21"/>
<feBlend mode="normal" in="SourceGraphic" in2="effect1_dropShadow_2_21" result="shape"/>
</filter>
<linearGradient id="paint0_linear_2_21" x1="182.5" y1="233.88" x2="290.5" y2="233.88" gradientUnits="userSpaceOnUse">
<stop stop-color="#EE5A24"/>
<stop offset="0.476365" stop-color="#F39C12"/>
<stop offset="1" stop-color="#EE5A24"/>
</linearGradient>
</defs>
</svg>
